<svg xmlns="http://www.w3.org/2000/svg" version="1.1" xmlns:xlink="http://www.w3.org/1999/xlink" xmlns:svgjs="http://svgjs.dev/svgjs" width="2000" height="277" viewBox="0 0 2000 277"><g transform="matrix(1,0,0,1,-1.2121212121213603,0.7771541494454368)"><svg viewBox="0 0 396 55" data-background-color="#ffffff" preserveAspectRatio="xMidYMid meet" height="277" width="2000" xmlns="http://www.w3.org/2000/svg" xmlns:xlink="http://www.w3.org/1999/xlink"><g id="tight-bounds" transform="matrix(1,0,0,1,0.24000000000003752,-0.15430858562996264)"><svg viewBox="0 0 395.5199999999999 55.30861717125994" height="55.30861717125994" width="395.5199999999999"><g><svg viewBox="0 0 647.8442327391103 90.59306395422756" height="55.30861717125994" width="395.5199999999999"><g><rect width="8.129130347695764" height="90.59306395422756" x="222.91465645503817" y="0" fill="#d3d3d3" opacity="1" stroke-width="0" stroke="transparent" fill-opacity="1" class="rect-yte-0" data-fill-palette-color="primary" rx="1%" id="yte-0" data-palette-color="#d3d3d3"></rect></g><g transform="matrix(1,0,0,1,252.32423273911027,0.22535588048314992)"><svg viewBox="0 0 395.52 90.14235219326126" height="90.14235219326126" width="395.52"><g id="textblocktransform"><svg viewBox="0 0 395.52 90.14235219326126" height="90.14235219326126" width="395.52" id="textblock"><g><svg viewBox="0 0 395.52 90.14235219326126" height="90.14235219326126" width="395.52"><g transform="matrix(1,0,0,1,0,0)"><svg width="395.52" viewBox="2 -35.35 157.28 35.85" height="90.14235219326126" data-palette-color="#d3d3d3"><path d="M7.9 0L2.25 0Q2 0 2-0.25L2-0.25 2.05-34.6Q2.05-34.8 2.25-34.8L2.25-34.8 7.85-34.8Q8.05-34.8 8.05-34.6L8.05-34.6 8.1-0.25Q8.1 0 7.9 0L7.9 0ZM17.95 0L12.95 0Q12.55 0 12.55-0.35L12.55-0.35 12.5-34.4Q12.5-34.8 12.9-34.8L12.9-34.8 17.4-34.8 25.85-15.1 25.6-34.4Q25.6-34.8 26.05-34.8L26.05-34.8 31-34.8Q31.3-34.8 31.3-34.4L31.3-34.4 31.35-0.3Q31.35 0 31.1 0L31.1 0 26.7 0 18.05-18.4 18.4-0.4Q18.4 0 17.95 0L17.95 0ZM41.55 0L35.9 0Q35.7 0 35.7-0.25L35.7-0.25 35.8-34.55Q35.8-34.8 36-34.8L36-34.8 41.6-34.8Q41.8-34.8 41.8-34.55L41.8-34.55 41.8-22.7 49.65-34.6Q49.8-34.8 50-34.8L50-34.8 55.75-34.8Q55.95-34.8 55.85-34.6L55.85-34.6 47.2-20.8 56.9-0.2Q57 0 56.65 0L56.65 0 50.55 0Q50.3 0 50.25-0.2L50.25-0.2 43.5-14.9 41.75-12.15 41.75-0.25Q41.75 0 41.55 0L41.55 0ZM65.74 0.5L65.74 0.5Q63.04 0.5 60.82-0.88 58.59-2.25 57.27-4.53 55.94-6.8 55.94-9.55L55.94-9.55 55.94-11.85Q55.94-12.1 56.19-12.1L56.19-12.1 61.79-12.1Q61.99-12.1 61.99-11.85L61.99-11.85 61.99-9.55Q61.99-7.9 63.09-6.73 64.19-5.55 65.74-5.55L65.74-5.55Q67.29-5.55 68.39-6.75 69.49-7.95 69.49-9.55L69.49-9.55Q69.49-11.4 67.09-12.75L67.09-12.75Q66.29-13.2 64.59-14.15 62.89-15.1 61.39-15.95L61.39-15.95Q58.64-17.55 57.32-19.98 55.99-22.4 55.99-25.45L55.99-25.45Q55.99-28.25 57.34-30.48 58.69-32.7 60.92-34 63.14-35.3 65.74-35.3L65.74-35.3Q68.39-35.3 70.62-33.98 72.84-32.65 74.17-30.43 75.49-28.2 75.49-25.45L75.49-25.45 75.49-21.35Q75.49-21.15 75.29-21.15L75.29-21.15 69.69-21.15Q69.49-21.15 69.49-21.35L69.49-21.35 69.44-25.45Q69.44-27.2 68.34-28.3 67.24-29.4 65.74-29.4L65.74-29.4Q64.19-29.4 63.09-28.23 61.99-27.05 61.99-25.45L61.99-25.45Q61.99-23.8 62.69-22.7 63.39-21.6 65.24-20.6L65.24-20.6Q65.49-20.45 66.22-20.08 66.94-19.7 67.79-19.23 68.64-18.75 69.32-18.4 69.99-18.05 70.14-17.95L70.14-17.95Q72.64-16.55 74.09-14.53 75.54-12.5 75.54-9.55L75.54-9.55Q75.54-6.7 74.22-4.42 72.89-2.15 70.67-0.83 68.44 0.5 65.74 0.5ZM84.89 0L79.29 0Q79.04 0 79.04-0.25L79.04-0.25 79.14-34.6Q79.14-34.8 79.34-34.8L79.34-34.8 88.94-34.8Q93.54-34.8 96.22-32 98.89-29.2 98.89-24.4L98.89-24.4Q98.89-20.85 97.49-18.25 96.09-15.65 93.84-14.25 91.59-12.85 88.94-12.85L88.94-12.85 85.14-12.85 85.14-0.25Q85.14 0 84.89 0L84.89 0ZM85.14-28.8L85.14-18.9 88.94-18.9Q90.54-18.9 91.72-20.43 92.89-21.95 92.89-24.4L92.89-24.4Q92.89-26.35 91.84-27.6 90.79-28.85 88.94-28.85L88.94-28.85 85.14-28.8ZM98.09-0.25L98.09-0.25 104.29-34.6Q104.34-34.8 104.54-34.8L104.54-34.8 111.79-34.8Q111.99-34.8 112.04-34.6L112.04-34.6 117.99-0.25Q118.04 0 117.79 0L117.79 0 112.24 0Q112.04 0 111.99-0.25L111.99-0.25 111.44-3.9 104.64-3.9 104.09-0.25Q104.04 0 103.84 0L103.84 0 98.29 0Q98.09 0 98.09-0.25ZM107.89-23.3L105.64-9.25 110.44-9.25 108.39-23.3 108.09-25.15 107.89-23.3ZM129.29 0.5L129.29 0.5Q126.54 0.5 124.31-0.88 122.09-2.25 120.79-4.55 119.49-6.85 119.49-9.7L119.49-9.7 119.54-25.3Q119.54-28.05 120.81-30.33 122.09-32.6 124.31-33.98 126.54-35.35 129.29-35.35L129.29-35.35Q132.04-35.35 134.24-34 136.44-32.65 137.74-30.38 139.04-28.1 139.04-25.3L139.04-25.3 139.04-23Q139.04-22.8 138.84-22.8L138.84-22.8 133.24-22.8Q133.04-22.8 133.04-23L133.04-23 133.04-25.3Q133.04-26.95 131.96-28.15 130.89-29.35 129.29-29.35L129.29-29.35Q127.49-29.35 126.54-28.13 125.59-26.9 125.59-25.3L125.59-25.3 125.59-9.7Q125.59-7.85 126.66-6.7 127.74-5.55 129.29-5.55L129.29-5.55Q130.89-5.55 131.96-6.83 133.04-8.1 133.04-9.7L133.04-9.7 133.04-12Q133.04-12.2 133.24-12.2L133.24-12.2 138.89-12.2Q139.09-12.2 139.09-12L139.09-12 139.09-9.7Q139.09-6.85 137.76-4.55 136.44-2.25 134.24-0.88 132.04 0.5 129.29 0.5ZM159.08 0L142.93 0Q142.73 0 142.73-0.25L142.73-0.25 142.78-34.6Q142.78-34.8 142.98-34.8L142.98-34.8 159.03-34.8Q159.23-34.8 159.23-34.55L159.23-34.55 159.23-28.95Q159.23-28.75 159.03-28.75L159.03-28.75 148.78-28.75 148.78-20.95 159.03-20.95Q159.23-20.95 159.23-20.75L159.23-20.75 159.28-15.1Q159.28-14.9 159.08-14.9L159.08-14.9 148.78-14.9 148.78-6.15 159.08-6.15Q159.28-6.15 159.28-5.9L159.28-5.9 159.28-0.2Q159.28 0 159.08 0L159.08 0Z" opacity="1" transform="matrix(1,0,0,1,0,0)" fill="#d3d3d3" class="wordmark-text-0" data-fill-palette-color="primary" id="text-0"></path></svg></g></svg></g></svg></g></svg></g><g transform="matrix(1,0,0,1,0,0.22535588048314992)"><svg viewBox="0 0 201.63421051866183 90.14235219326126" height="90.14235219326126" width="201.63421051866183"><g><svg xmlns="http://www.w3.org/2000/svg" xmlns:xlink="http://www.w3.org/1999/xlink" version="1.0" x="0" y="0" viewBox="5 32.653 90.02058228862379 40.244495279002" enable-background="new 0 0 100 100" xml:space="preserve" height="90.14235219326126" width="201.63421051866183" class="icon-icon-0" data-fill-palette-color="accent" id="icon-0"><g fill="#d3d3d3" data-fill-palette-color="accent"><path fill="#d3d3d3" d="M79.831 68.229C77.975 65.701 75.634 63.682 73.086 61.882 71.731 60.928 70.268 60.139 68.964 59.105A138 138 0 0 0 64.736 55.889C60.858 53.04 56.855 50.369 52.926 47.591 51.287 46.431 50.549 44.73 50.439 42.758 50.392 41.904 50.797 41.578 51.684 41.66 52.484 41.735 53.276 41.859 54.043 42.103 55.417 42.542 56.818 42.83 58.268 42.839 58.978 42.843 59.655 42.674 60.239 42.292A12.1 12.1 0 0 0 63.66 38.949C63.681 38.921 63.642 38.852 63.618 38.748 62.663 38.748 61.695 38.763 60.728 38.74 60.387 38.732 60.166 38.858 59.939 39.094 59.311 39.749 58.524 40.146 57.658 40.378 55.901 40.846 54.262 40.364 52.47 39.719 54.043 39.564 55.583 40.035 56.917 38.714 55.776 38.714 54.818 38.678 53.862 38.723 52.913 38.769 52.135 39.502 51.13 39.421 52.226 40.143 53.278 40.854 54.234 41.731 53.709 41.667 53.222 41.447 52.722 41.419 51.969 41.375 51.524 40.924 51.076 40.429 50.966 40.304 50.87 40.169 50.761 40.044 49.811 38.963 48.971 37.783 47.851 36.858 47.648 36.691 47.478 36.417 47.094 36.605 48.105 37.862 48.806 39.296 49.617 40.665L49.51 40.807C48.527 40.74 47.751 40.357 47.129 39.667A4.5 4.5 0 0 1 46.724 39.142C46.296 38.498 45.943 37.792 45.472 37.204 44.815 36.381 44.211 35.524 43.588 34.68 43.376 34.393 43.105 34.24 42.788 34.125 41.804 33.766 40.814 33.419 39.839 33.038 38.492 32.51 37.119 32.663 35.745 32.846 34.797 32.972 34.313 33.614 34.417 34.684 34.497 35.511 34.562 36.352 34.432 37.172 34.297 38.026 34.441 38.837 34.686 39.625 35.135 41.072 35.646 42.5 36.147 43.932 36.714 45.552 37.326 47.17 38.301 48.581 40.322 51.506 42.631 54.205 45.341 56.513 48.522 59.225 51.794 61.829 55.001 64.512 56.869 66.076 58.725 67.663 60.283 69.553 60.978 70.394 61.595 71.272 61.459 72.467 61.723 72.487 61.941 72.516 62.16 72.518 63.933 72.544 65.707 72.568 67.48 72.587 68.277 72.596 68.321 72.53 68.217 71.733 68.173 71.398 68.048 71.095 67.904 70.795 67.628 70.217 67.253 69.706 66.853 69.207 65.433 67.441 63.642 66.076 61.89 64.68 58.061 61.626 54.177 58.642 50.336 55.603 48.882 54.455 47.367 53.372 46.08 52.026 44.74 50.624 43.491 49.143 42.258 47.644 41.292 46.471 40.63 45.189 40.189 43.728 39.743 42.25 39.939 40.884 40.476 39.523 40.837 38.611 41.52 38.322 42.47 38.607A63 63 0 0 1 44.833 39.369C45.631 39.646 46.417 39.958 47.209 40.254 46.971 40.364 46.757 40.363 46.542 40.364 45.138 40.373 44.859 40.612 44.427 41.947 44.211 42.614 44.361 43.2 44.632 43.783 44.854 44.261 45.105 44.723 45.368 45.176 46.503 47.13 47.855 48.935 49.631 50.329 55.399 54.856 61.45 59.005 67.277 63.454 68.95 64.732 70.629 66 72.081 67.536 73.452 68.986 74.769 70.477 74.861 72.74L80.895 72.741C81.666 72.741 81.705 72.695 81.579 71.941 81.346 70.542 80.65 69.349 79.831 68.229" data-fill-palette-color="accent"></path><path fill="#d3d3d3" d="M27.882 67.337C27.014 65.642 26.08 63.981 25.245 62.271 23.692 59.086 22.388 55.848 22.057 52.239 21.74 48.781 22.119 45.455 23.07 42.154 23.335 41.235 23.678 40.343 24.035 39.461 23.606 39.233 23.354 39.488 23.078 39.66 21.787 40.467 20.607 41.441 19.316 42.238A9.96 9.96 0 0 0 16.103 45.394C15.603 46.173 14.907 46.815 14.516 47.67 14.844 47.689 15.047 47.483 15.247 47.288L15.326 47.213 15.333 47.207 15.43 47.123C16.953 45.924 18.324 44.55 19.789 43.286 20.001 43.103 20.18 42.841 20.491 42.817 20.658 43.129 20.42 43.22 20.296 43.333 18.443 45.005 16.824 46.897 15.164 48.753 14.021 50.032 12.872 51.32 11.504 52.362A12.2 12.2 0 0 0 8.932 55.022C7.676 56.781 6.36 58.499 5.053 60.256 5.169 60.277 5.238 60.313 5.27 60.291A9 9 0 0 0 5.811 59.909C8.696 57.759 11.12 55.152 13.317 52.323 14.351 50.993 15.374 49.655 16.402 48.321L16.552 48.561C15.766 49.824 14.981 51.09 14.194 52.352 11.95 55.951 9.475 59.371 6.535 62.445A50 50 0 0 1 5 63.96V68.602C5.294 68.141 5.581 67.676 5.939 67.263 7.502 65.465 8.952 63.582 10.2 61.551 12.5 57.813 14.521 53.921 16.484 50 17.211 48.546 18.003 47.131 18.952 45.808L19.12 45.927C18.842 46.499 18.535 47.059 18.293 47.644 16.926 50.958 15.502 54.248 14.344 57.646A53 53 0 0 1 12.162 63.099 5.3 5.3 0 0 0 11.72 64.599C11.656 65.037 11.599 65.475 11.529 65.912 11.169 68.15 10.364 70.17 8.657 71.745 8.629 71.77 8.648 71.848 8.641 71.977 10.693 71.977 12.739 71.967 14.786 71.987 15.142 71.989 15.344 71.819 15.546 71.578 16.378 70.58 16.744 69.413 16.813 68.137 16.891 66.721 16.748 65.314 16.575 63.912 16.352 62.1 16.141 60.324 16.617 58.489 17.183 56.3 17.31 54.011 17.988 51.839 18.717 49.497 19.327 47.111 20.33 44.861 20.774 43.866 21.266 42.893 21.927 41.989 22.153 42.36 21.906 42.626 21.801 42.887 20.857 45.2 20.291 47.618 19.854 50.066 19.414 52.533 19.535 55.037 19.475 57.527 19.47 57.691 19.5 57.86 19.54 58.019 19.834 59.199 20.122 60.379 20.437 61.553 20.975 63.551 21.75 65.478 22.235 67.491 22.604 69.02 22.844 70.552 21.747 71.928 21.731 71.949 21.776 72.017 21.811 72.116 23.732 72.116 25.671 72.114 27.609 72.116 28.451 72.116 28.594 72.004 28.8 71.204 28.891 70.85 28.91 70.501 28.861 70.136 28.726 69.135 28.336 68.221 27.882 67.337" data-fill-palette-color="accent"></path><path fill="#d3d3d3" d="M14.505 47.684L14.509 47.682C14.511 47.678 14.514 47.674 14.515 47.669L14.491 47.668C14.497 47.674 14.5 47.68 14.505 47.684" data-fill-palette-color="accent"></path><path fill="#d3d3d3" d="M14.489 47.78A0.05 0.05 0 0 0 14.516 47.765C14.52 47.76 14.521 47.754 14.522 47.749L14.526 47.741C14.526 47.733 14.526 47.726 14.522 47.717V47.715A0.1 0.1 0 0 0 14.505 47.684L14.394 47.743C14.426 47.757 14.463 47.789 14.489 47.78" data-fill-palette-color="accent"></path><path fill="#d3d3d3" d="M94.996 72.358C94.862 71.536 94.687 70.712 94.327 69.973 93.612 68.516 93.613 66.989 93.722 65.437 93.82 64 93.859 62.561 93.828 61.121 93.817 60.646 93.667 60.291 93.373 59.928 92.172 58.446 91.013 56.929 89.811 55.446 89.262 54.77 88.782 54.031 88.137 53.416 87.967 53.634 88.039 53.832 88.022 54.013 87.909 55.201 87.401 55.628 86.223 55.53 85.522 55.471 84.882 55.209 84.26 54.916 82.84 54.242 81.446 53.513 80.017 52.863 77.079 51.526 74.03 50.468 70.977 49.431 69.684 48.992 68.723 48.298 68.338 46.942A1.04 1.04 0 0 0 67.842 46.309C67.641 46.191 67.394 46.107 67.333 45.967L70.709 38.817C69.615 38.817 68.675 38.844 67.738 38.806 67.289 38.786 67.05 38.932 66.834 39.326 65.942 40.943 65.013 42.538 64.099 44.141 63.67 44.895 63.672 44.897 62.851 44.741 62.118 44.601 61.383 44.478 60.656 44.309 60.189 44.199 59.725 44.201 59.255 44.191 58.808 44.18 58.466 44.362 58.16 44.737 58.762 45.266 59.425 45.658 60.072 46.057 61.76 47.094 63.407 48.189 65.267 48.943 66.688 49.518 68.15 50.092 69.175 51.35 70.668 53.182 72.533 54.644 74.173 56.33 74.796 56.969 75.517 57.461 76.285 57.916 79.973 60.094 83.205 62.779 85.573 66.4 86.803 68.278 87.944 70.201 88.182 72.504 88.219 72.846 88.459 72.79 88.67 72.793 90.635 72.827 92.601 72.842 94.567 72.897 95.032 72.908 95.058 72.736 94.996 72.358" data-fill-palette-color="accent"></path><path fill="#d3d3d3" d="M54.489 70.436C54.096 69.764 53.615 69.157 53.092 68.583 51.147 66.448 48.95 64.582 46.774 62.693 43.843 60.152 40.904 57.625 38.434 54.606 36.889 52.716 35.434 50.785 34.473 48.513 33.472 46.151 32.6 43.737 31.637 41.36 31.481 40.975 31.422 40.565 31.396 40.146A96 96 0 0 0 31.15 37.169C31.016 35.716 31.294 34.312 32.143 33.069 32.214 32.965 32.351 32.87 32.169 32.653 31.595 33.001 31.025 33.379 30.426 33.703 29.346 34.286 28.774 35.206 28.554 36.38A6 6 0 0 0 28.488 36.873C28.36 38.342 28.537 39.802 28.585 41.266 28.628 42.624 28.98 43.877 29.475 45.118 30.16 46.834 30.789 48.573 31.501 50.279 32.161 51.858 32.908 53.398 33.894 54.812 35.787 57.528 38.013 59.951 40.365 62.266 42.301 64.168 44.307 66.002 46.119 68.03 46.785 68.773 47.428 69.539 47.882 70.431 48.171 70.993 48.432 71.583 48.056 72.434L54.009 72.435C54.959 72.435 55.159 72.176 54.875 71.258A4 4 0 0 0 54.489 70.436" data-fill-palette-color="accent"></path><path fill="#d3d3d3" d="M40.693 68.826C39.306 66.846 37.595 65.139 36.018 63.32 34.024 61.017 32.059 58.691 30.556 56.023 29.282 53.755 28.311 51.349 27.49 48.889 27.079 47.662 26.614 46.444 26.437 45.15 26.094 42.655 26.381 40.178 26.613 37.696 26.65 37.29 26.998 36.98 26.933 36.556 26.767 36.544 26.686 36.616 26.599 36.684 25.516 37.56 24.918 38.719 24.666 40.061 24.487 41.012 24.365 41.974 24.202 42.928 23.913 44.604 23.812 46.296 24.07 47.973A32.4 32.4 0 0 0 27.049 57.413C28.508 60.384 30.427 63.05 32.341 65.725 33.192 66.916 34.09 68.078 34.726 69.407 35.142 70.273 35.383 71.163 34.841 72.275 36.992 72.275 38.985 72.277 40.977 72.274 41.648 72.273 41.777 72.136 41.799 71.459 41.812 71.062 41.715 70.688 41.562 70.329A8.6 8.6 0 0 0 40.693 68.826" data-fill-palette-color="accent"></path><path fill="#d3d3d3" d="M71.833 47.306C72.606 47.701 73.341 47.524 74.036 47.121 74.798 46.679 75.584 46.246 75.846 45.291 76.312 43.591 76.781 41.891 77.272 40.197 77.361 39.892 77.309 39.685 77.132 39.439 76.837 39.027 76.51 38.783 75.96 38.857A5 5 0 0 1 74.718 38.856C74.226 38.801 73.997 38.973 73.824 39.453 73.164 41.293 72.443 43.112 71.762 44.943 71.507 45.627 71.189 46.258 70.547 46.774 70.98 47.077 71.441 47.107 71.833 47.306" data-fill-palette-color="accent"></path><path fill="#d3d3d3" d="M75.627 48.175C75.288 48.162 74.954 48.127 74.484 48.259 76.261 48.815 77.852 49.488 79.477 50.069 80.204 50.329 80.952 50.53 81.745 50.497 82.832 50.452 83.427 49.965 83.653 48.899 83.693 48.709 83.693 48.511 83.745 48.325 83.824 48.031 83.757 47.795 83.567 47.558 82.474 46.203 81.395 44.838 80.247 43.396 80.08 43.676 80.069 43.896 80.03 44.111 79.884 44.927 79.756 45.747 79.464 46.527 79.072 47.569 78.301 48.113 77.204 48.178 76.681 48.211 76.152 48.198 75.627 48.175" data-fill-palette-color="accent"></path><path fill="#d3d3d3" d="M20.285 39.799C21.131 39.448 21.755 39.016 22.424 38.633 21.312 38.195 20.846 38.919 20.285 39.799" data-fill-palette-color="accent"></path></g></svg></g></svg></g></svg></g><defs></defs></svg><rect width="395.5199999999999" height="55.30861717125994" fill="none" stroke="none" visibility="hidden"></rect></g></svg></g></svg>