<svg xmlns="http://www.w3.org/2000/svg" version="1.1" xmlns:xlink="http://www.w3.org/1999/xlink" xmlns:svgjs="http://svgjs.dev/svgjs" width="2000" height="247" viewBox="0 0 2000 247"><g transform="matrix(1,0,0,1,-1.2121212121212466,0.4739442806423426)"><svg viewBox="0 0 396 49" data-background-color="#ffffff" preserveAspectRatio="xMidYMid meet" height="247" width="2000" xmlns="http://www.w3.org/2000/svg" xmlns:xlink="http://www.w3.org/1999/xlink"><g id="tight-bounds" transform="matrix(1,0,0,1,0.2400000000000091,-0.09402133502621268)"><svg viewBox="0 0 395.52 49.188042670052404" height="49.188042670052404" width="395.52"><g><svg viewBox="0 0 605.1239385818656 75.25501140684409" height="49.188042670052404" width="395.52"><g><rect width="6.752810539145247" height="75.25501140684409" x="185.1736135423401" y="0" fill="#d3d3d3" opacity="1" stroke-width="0" stroke="transparent" fill-opacity="1" class="rect-qz-0" data-fill-palette-color="primary" rx="1%" id="qz-0" data-palette-color="#d3d3d3"></rect></g><g transform="matrix(1,0,0,1,209.60393858186558,0.18720152091254505)"><svg viewBox="0 0 395.52 74.880608365019" height="74.880608365019" width="395.52"><g id="textblocktransform"><svg viewBox="0 0 395.52 74.880608365019" height="74.880608365019" width="395.52" id="textblock"><g><svg viewBox="0 0 395.52 74.880608365019" height="74.880608365019" width="395.52"><g transform="matrix(1,0,0,1,0,0)"><svg width="395.52" viewBox="0.440277722225 -35.35 189.339722277775 35.85" height="74.880608365019" data-palette-color="#d3d3d3"><path d="M12.65 0L6.6 0Q6.4 0 6.35-0.25L6.35-0.25 0.45-34.6Q0.4-34.8 0.6-34.8L0.6-34.8 6.2-34.8Q6.4-34.8 6.45-34.6L6.45-34.6 9.65-12 12.95-34.6Q13-34.8 13.25-34.8L13.25-34.8 17.75-34.8Q17.95-34.8 18-34.6L18-34.6 21.25-12 24.5-34.6Q24.55-34.8 24.75-34.8L24.75-34.8 30.3-34.8Q30.55-34.8 30.5-34.6L30.5-34.6 24.55-0.25Q24.5-0.15 24.4-0.08 24.3 0 24.3 0L24.3 0 18.25 0Q18.1 0 18-0.25L18-0.25 15.45-18.2 12.9-0.25Q12.85 0 12.65 0L12.65 0ZM49.8 0L33.65 0Q33.45 0 33.45-0.25L33.45-0.25 33.5-34.6Q33.5-34.8 33.7-34.8L33.7-34.8 49.75-34.8Q49.95-34.8 49.95-34.55L49.95-34.55 49.95-28.95Q49.95-28.75 49.75-28.75L49.75-28.75 39.5-28.75 39.5-20.95 49.75-20.95Q49.95-20.95 49.95-20.75L49.95-20.75 50-15.1Q50-14.9 49.8-14.9L49.8-14.9 39.5-14.9 39.5-6.15 49.8-6.15Q50-6.15 50-5.9L50-5.9 50-0.2Q50 0 49.8 0L49.8 0ZM70.8 0L54.65 0Q54.45 0 54.45-0.25L54.45-0.25 54.5-34.55Q54.5-34.8 54.75-34.8L54.75-34.8 60.3-34.8Q60.55-34.8 60.55-34.55L60.55-34.55 60.5-6.15 70.8-6.15Q71.05-6.15 71.05-5.9L71.05-5.9 71.05-0.25Q71.05 0 70.8 0L70.8 0ZM90.64 0L74.49 0Q74.29 0 74.29-0.25L74.29-0.25 74.34-34.55Q74.34-34.8 74.59-34.8L74.59-34.8 80.14-34.8Q80.39-34.8 80.39-34.55L80.39-34.55 80.34-6.15 90.64-6.15Q90.89-6.15 90.89-5.9L90.89-5.9 90.89-0.25Q90.89 0 90.64 0L90.64 0ZM99.69-14.45L90.04-14.45Q89.79-14.45 89.79-14.65L89.79-14.65 89.79-20.1Q89.79-20.3 90.04-20.3L90.04-20.3 99.69-20.3Q99.94-20.3 99.94-20.1L99.94-20.1 99.94-14.65Q99.94-14.45 99.69-14.45L99.69-14.45ZM113.99-0.05L105.04 0Q104.79 0 104.79-0.25L104.79-0.25 104.89-34.6Q104.89-34.8 105.09-34.8L105.09-34.8 114.44-34.85Q117.19-34.9 119.46-33.55 121.74-32.2 123.09-29.93 124.44-27.65 124.44-24.9L124.44-24.9 124.44-10.55Q124.44-7.65 123.04-5.28 121.64-2.9 119.29-1.5 116.94-0.1 113.99-0.05L113.99-0.05ZM110.94-28.8L110.89-6.15 113.99-6.15Q115.84-6.15 117.11-7.45 118.39-8.75 118.39-10.55L118.39-10.55 118.39-24.95Q118.39-26.55 117.21-27.73 116.04-28.9 114.44-28.85L114.44-28.85 110.94-28.8ZM136.44 0.5L136.44 0.5Q133.74 0.5 131.51-0.88 129.29-2.25 127.94-4.53 126.59-6.8 126.59-9.55L126.59-9.55 126.64-25.4Q126.64-28.15 127.96-30.4 129.29-32.65 131.54-34 133.79-35.35 136.44-35.35L136.44-35.35Q139.14-35.35 141.34-34 143.54-32.65 144.86-30.4 146.19-28.15 146.19-25.4L146.19-25.4 146.24-9.55Q146.24-6.8 144.91-4.53 143.59-2.25 141.36-0.88 139.14 0.5 136.44 0.5ZM136.44-5.55L136.44-5.55Q137.94-5.55 139.06-6.78 140.19-8 140.19-9.55L140.19-9.55 140.14-25.4Q140.14-27.05 139.09-28.2 138.04-29.35 136.44-29.35L136.44-29.35Q134.89-29.35 133.79-28.23 132.69-27.1 132.69-25.4L132.69-25.4 132.69-9.55Q132.69-7.9 133.79-6.73 134.89-5.55 136.44-5.55ZM155.48 0L150.48 0Q150.08 0 150.08-0.35L150.08-0.35 150.03-34.4Q150.03-34.8 150.43-34.8L150.43-34.8 154.93-34.8 163.38-15.1 163.13-34.4Q163.13-34.8 163.58-34.8L163.58-34.8 168.53-34.8Q168.83-34.8 168.83-34.4L168.83-34.4 168.88-0.3Q168.88 0 168.63 0L168.63 0 164.23 0 155.58-18.4 155.93-0.4Q155.93 0 155.48 0L155.48 0ZM189.58 0L173.43 0Q173.23 0 173.23-0.25L173.23-0.25 173.28-34.6Q173.28-34.8 173.48-34.8L173.48-34.8 189.53-34.8Q189.73-34.8 189.73-34.55L189.73-34.55 189.73-28.95Q189.73-28.75 189.53-28.75L189.53-28.75 179.28-28.75 179.28-20.95 189.53-20.95Q189.73-20.95 189.73-20.75L189.73-20.75 189.78-15.1Q189.78-14.9 189.58-14.9L189.58-14.9 179.28-14.9 179.28-6.15 189.58-6.15Q189.78-6.15 189.78-5.9L189.78-5.9 189.78-0.2Q189.78 0 189.58 0L189.58 0Z" opacity="1" transform="matrix(1,0,0,1,0,0)" fill="#d3d3d3" class="wordmark-text-0" data-fill-palette-color="primary" id="text-0"></path></svg></g></svg></g></svg></g></svg></g><g transform="matrix(1,0,0,1,0,0.18720152091254505)"><svg viewBox="0 0 167.49609904195987 74.880608365019" height="74.880608365019" width="167.49609904195987"><g><svg xmlns="http://www.w3.org/2000/svg" xmlns:xlink="http://www.w3.org/1999/xlink" version="1.0" x="0" y="0" viewBox="5 32.65300000000001 90.02058228862379 40.24449527900199" enable-background="new 0 0 100 100" xml:space="preserve" height="74.880608365019" width="167.49609904195987" class="icon-icon-0" data-fill-palette-color="accent" id="icon-0"><g fill="#d3d3d3" data-fill-palette-color="accent"><path fill="#d3d3d3" d="M79.831 68.229c-1.856-2.528-4.197-4.547-6.745-6.347-1.355-0.954-2.818-1.743-4.122-2.777-1.387-1.101-2.801-2.17-4.228-3.216-3.878-2.849-7.881-5.52-11.81-8.298-1.639-1.16-2.377-2.861-2.487-4.833-0.047-0.854 0.358-1.18 1.245-1.098 0.8 0.075 1.592 0.199 2.359 0.443 1.374 0.439 2.775 0.727 4.225 0.736 0.71 0.004 1.387-0.165 1.971-0.547 1.36-0.883 2.504-2.001 3.421-3.343 0.021-0.028-0.018-0.097-0.042-0.201-0.955 0-1.923 0.015-2.89-0.008-0.341-0.008-0.562 0.118-0.789 0.354-0.628 0.655-1.415 1.052-2.281 1.284-1.757 0.468-3.396-0.014-5.188-0.659 1.573-0.155 3.113 0.316 4.447-1.005-1.141 0-2.099-0.036-3.055 0.009-0.949 0.046-1.727 0.779-2.732 0.698 1.096 0.722 2.148 1.433 3.104 2.31-0.525-0.064-1.012-0.284-1.512-0.312-0.753-0.044-1.198-0.495-1.646-0.99-0.11-0.125-0.206-0.26-0.315-0.385-0.95-1.081-1.79-2.261-2.91-3.186-0.203-0.167-0.373-0.441-0.757-0.253 1.011 1.257 1.712 2.691 2.523 4.06-0.036 0.048-0.072 0.096-0.107 0.142-0.983-0.067-1.759-0.45-2.381-1.14-0.142-0.158-0.278-0.333-0.405-0.525-0.428-0.644-0.781-1.35-1.252-1.938-0.657-0.823-1.261-1.68-1.884-2.524-0.212-0.287-0.483-0.44-0.8-0.555-0.984-0.359-1.974-0.706-2.949-1.087-1.347-0.528-2.72-0.375-4.094-0.192-0.948 0.126-1.432 0.768-1.328 1.838 0.08 0.827 0.145 1.668 0.015 2.488-0.135 0.854 0.009 1.665 0.254 2.453 0.449 1.447 0.96 2.875 1.461 4.307 0.567 1.62 1.179 3.238 2.154 4.649 2.021 2.925 4.33 5.624 7.04 7.932 3.181 2.712 6.453 5.316 9.66 7.999 1.868 1.564 3.724 3.151 5.282 5.041 0.695 0.841 1.312 1.719 1.176 2.914 0.264 0.02 0.482 0.049 0.701 0.051 1.773 0.026 3.547 0.05 5.32 0.069 0.797 0.009 0.841-0.057 0.737-0.854-0.044-0.335-0.169-0.638-0.313-0.938-0.276-0.578-0.651-1.089-1.051-1.588-1.42-1.766-3.211-3.131-4.963-4.527-3.829-3.054-7.713-6.038-11.554-9.077-1.454-1.148-2.969-2.231-4.256-3.577-1.34-1.402-2.589-2.883-3.822-4.382-0.966-1.173-1.628-2.455-2.069-3.916-0.446-1.478-0.25-2.844 0.287-4.205 0.361-0.912 1.044-1.201 1.994-0.916 0.792 0.24 1.582 0.491 2.363 0.762 0.798 0.277 1.584 0.589 2.376 0.885-0.238 0.11-0.452 0.109-0.667 0.11-1.404 0.009-1.683 0.248-2.115 1.583-0.216 0.667-0.066 1.253 0.205 1.836 0.222 0.478 0.473 0.94 0.736 1.393 1.135 1.954 2.487 3.759 4.263 5.153 5.768 4.527 11.819 8.676 17.646 13.125 1.673 1.278 3.352 2.546 4.804 4.082 1.371 1.45 2.688 2.941 2.78 5.204 2.048 0 4.042 0 6.034 0.001 0.771 0 0.81-0.046 0.684-0.8C81.346 70.542 80.65 69.349 79.831 68.229z" data-fill-palette-color="accent"></path><path fill="#d3d3d3" d="M27.882 67.337c-0.868-1.695-1.802-3.356-2.637-5.066-1.553-3.185-2.857-6.423-3.188-10.032-0.317-3.458 0.062-6.784 1.013-10.085 0.265-0.919 0.608-1.811 0.965-2.693-0.429-0.228-0.681 0.027-0.957 0.199-1.291 0.807-2.471 1.781-3.762 2.578-1.325 0.819-2.383 1.859-3.213 3.156-0.5 0.779-1.196 1.421-1.587 2.276 0.328 0.019 0.531-0.187 0.731-0.382 0.026-0.025 0.052-0.049 0.079-0.075 0.002-0.002 0.005-0.003 0.007-0.006 0.032-0.029 0.065-0.056 0.097-0.084 1.523-1.199 2.894-2.573 4.359-3.837 0.212-0.183 0.391-0.445 0.702-0.469 0.167 0.312-0.071 0.403-0.195 0.516-1.853 1.672-3.472 3.564-5.132 5.42-1.143 1.279-2.292 2.567-3.66 3.609-1.002 0.764-1.843 1.638-2.572 2.66-1.256 1.759-2.572 3.477-3.879 5.234 0.116 0.021 0.185 0.057 0.217 0.035 0.186-0.119 0.364-0.25 0.541-0.382 2.885-2.15 5.309-4.757 7.506-7.586 1.034-1.33 2.057-2.668 3.085-4.002 0.05 0.08 0.1 0.16 0.15 0.24-0.786 1.263-1.571 2.529-2.358 3.791-2.244 3.599-4.719 7.019-7.659 10.093C6.036 62.964 5.52 63.464 5 63.96v4.642c0.294-0.461 0.581-0.926 0.939-1.339 1.563-1.798 3.013-3.681 4.261-5.712 2.3-3.738 4.321-7.63 6.284-11.551 0.727-1.454 1.519-2.869 2.468-4.192 0.056 0.04 0.112 0.079 0.168 0.119-0.278 0.572-0.585 1.132-0.827 1.717-1.367 3.314-2.791 6.604-3.949 10.002-0.633 1.855-1.348 3.68-2.182 5.453-0.227 0.485-0.367 0.979-0.442 1.5-0.064 0.438-0.121 0.876-0.191 1.313-0.36 2.238-1.165 4.258-2.872 5.833-0.028 0.025-0.009 0.103-0.016 0.232 2.052 0 4.098-0.01 6.145 0.01 0.356 0.002 0.558-0.168 0.76-0.409 0.832-0.998 1.198-2.165 1.267-3.441 0.078-1.416-0.065-2.823-0.238-4.225-0.223-1.812-0.434-3.588 0.042-5.423 0.566-2.189 0.693-4.478 1.371-6.65 0.729-2.342 1.339-4.728 2.342-6.978 0.444-0.995 0.936-1.968 1.597-2.872 0.226 0.371-0.021 0.637-0.126 0.898-0.944 2.313-1.51 4.731-1.947 7.179-0.44 2.467-0.319 4.971-0.379 7.461-0.005 0.164 0.025 0.333 0.065 0.492 0.294 1.18 0.582 2.36 0.897 3.534 0.538 1.998 1.313 3.925 1.798 5.938 0.369 1.529 0.609 3.061-0.488 4.437-0.016 0.021 0.029 0.089 0.064 0.188 1.921 0 3.86-0.002 5.798 0 0.842 0 0.985-0.112 1.191-0.912 0.091-0.354 0.11-0.703 0.061-1.068C28.726 69.135 28.336 68.221 27.882 67.337z" data-fill-palette-color="accent"></path><path fill="#d3d3d3" d="M14.505 47.684c0.001 0 0.002 0 0.004-0.002 0.002-0.004 0.005-0.008 0.006-0.013-0.008-0.001-0.016-0.001-0.024-0.001C14.497 47.674 14.5 47.68 14.505 47.684z" data-fill-palette-color="accent"></path><path fill="#d3d3d3" d="M14.489 47.78c0.012-0.003 0.021-0.008 0.027-0.015 0.004-0.005 0.005-0.011 0.006-0.016 0.001-0.002 0.003-0.004 0.004-0.008 0-0.008 0-0.015-0.004-0.024 0-0.001 0-0.001 0-0.002-0.003-0.01-0.009-0.02-0.017-0.031-0.037 0.019-0.074 0.039-0.111 0.059C14.426 47.757 14.463 47.789 14.489 47.78z" data-fill-palette-color="accent"></path><path fill="#d3d3d3" d="M94.996 72.358c-0.134-0.822-0.309-1.646-0.669-2.385-0.715-1.457-0.714-2.984-0.605-4.536 0.098-1.437 0.137-2.876 0.106-4.316-0.011-0.475-0.161-0.83-0.455-1.193-1.201-1.482-2.36-2.999-3.562-4.482-0.549-0.676-1.029-1.415-1.674-2.03-0.17 0.218-0.098 0.416-0.115 0.597-0.113 1.188-0.621 1.615-1.799 1.517-0.701-0.059-1.341-0.321-1.963-0.614-1.42-0.674-2.814-1.403-4.243-2.053-2.938-1.337-5.987-2.395-9.04-3.432-1.293-0.439-2.254-1.133-2.639-2.489-0.081-0.28-0.242-0.483-0.496-0.633-0.201-0.118-0.448-0.202-0.509-0.342 1.134-2.403 2.229-4.722 3.376-7.15-1.094 0-2.034 0.027-2.971-0.011-0.449-0.02-0.688 0.126-0.904 0.52-0.892 1.617-1.821 3.212-2.735 4.815-0.429 0.754-0.427 0.756-1.248 0.6-0.733-0.14-1.468-0.263-2.195-0.432-0.467-0.11-0.931-0.108-1.401-0.118-0.447-0.011-0.789 0.171-1.095 0.546 0.602 0.529 1.265 0.921 1.912 1.32 1.688 1.037 3.335 2.132 5.195 2.886 1.421 0.575 2.883 1.149 3.908 2.407 1.493 1.832 3.358 3.294 4.998 4.98 0.623 0.639 1.344 1.131 2.112 1.586 3.688 2.178 6.92 4.863 9.288 8.484 1.23 1.878 2.371 3.801 2.609 6.104 0.037 0.342 0.277 0.286 0.488 0.289 1.965 0.034 3.931 0.049 5.897 0.104C95.032 72.908 95.058 72.736 94.996 72.358z" data-fill-palette-color="accent"></path><path fill="#d3d3d3" d="M54.489 70.436c-0.393-0.672-0.874-1.279-1.397-1.853-1.945-2.135-4.142-4.001-6.318-5.89-2.931-2.541-5.87-5.068-8.34-8.087-1.545-1.89-3-3.821-3.961-6.093-1.001-2.362-1.873-4.776-2.836-7.153-0.156-0.385-0.215-0.795-0.241-1.214-0.062-0.994-0.153-1.985-0.246-2.977-0.134-1.453 0.144-2.857 0.993-4.1 0.071-0.104 0.208-0.199 0.026-0.416-0.574 0.348-1.144 0.726-1.743 1.05-1.08 0.583-1.652 1.503-1.872 2.677-0.03 0.165-0.051 0.329-0.066 0.493-0.128 1.469 0.049 2.929 0.097 4.393 0.043 1.358 0.395 2.611 0.89 3.852 0.685 1.716 1.314 3.455 2.026 5.161 0.66 1.579 1.407 3.119 2.393 4.533 1.893 2.716 4.119 5.139 6.471 7.454 1.936 1.902 3.942 3.736 5.754 5.764 0.666 0.743 1.309 1.509 1.763 2.401 0.289 0.562 0.55 1.152 0.174 2.003 2.081 0 4.018 0 5.953 0.001 0.95 0 1.15-0.259 0.866-1.177C54.785 70.973 54.643 70.695 54.489 70.436z" data-fill-palette-color="accent"></path><path fill="#d3d3d3" d="M40.693 68.826c-1.387-1.98-3.098-3.687-4.675-5.506-1.994-2.303-3.959-4.629-5.462-7.297-1.274-2.268-2.245-4.674-3.066-7.134-0.411-1.227-0.876-2.445-1.053-3.739-0.343-2.495-0.056-4.972 0.176-7.454 0.037-0.406 0.385-0.716 0.32-1.14-0.166-0.012-0.247 0.06-0.334 0.128-1.083 0.876-1.681 2.035-1.933 3.377-0.179 0.951-0.301 1.913-0.464 2.867-0.289 1.676-0.39 3.368-0.132 5.045 0.503 3.297 1.506 6.44 2.979 9.44 1.459 2.971 3.378 5.637 5.292 8.312 0.851 1.191 1.749 2.353 2.385 3.682 0.416 0.866 0.657 1.756 0.115 2.868 2.151 0 4.144 0.002 6.136-0.001 0.671-0.001 0.8-0.138 0.822-0.815 0.013-0.397-0.084-0.771-0.237-1.13C41.331 69.796 41.027 69.302 40.693 68.826z" data-fill-palette-color="accent"></path><path fill="#d3d3d3" d="M71.833 47.306c0.773 0.395 1.508 0.218 2.203-0.185 0.762-0.442 1.548-0.875 1.81-1.83 0.466-1.7 0.935-3.4 1.426-5.094 0.089-0.305 0.037-0.512-0.14-0.758-0.295-0.412-0.622-0.656-1.172-0.582-0.407 0.056-0.831 0.044-1.242-0.001-0.492-0.055-0.721 0.117-0.894 0.597-0.66 1.84-1.381 3.659-2.062 5.49-0.255 0.684-0.573 1.315-1.215 1.831C70.98 47.077 71.441 47.107 71.833 47.306z" data-fill-palette-color="accent"></path><path fill="#d3d3d3" d="M75.627 48.175c-0.339-0.013-0.673-0.048-1.143 0.084 1.777 0.556 3.368 1.229 4.993 1.81 0.727 0.26 1.475 0.461 2.268 0.428 1.087-0.045 1.682-0.532 1.908-1.598 0.04-0.19 0.04-0.388 0.092-0.574 0.079-0.294 0.012-0.53-0.178-0.767-1.093-1.355-2.172-2.72-3.32-4.162-0.167 0.28-0.178 0.5-0.217 0.715-0.146 0.816-0.274 1.636-0.566 2.416-0.392 1.042-1.163 1.586-2.26 1.651C76.681 48.211 76.152 48.198 75.627 48.175z" data-fill-palette-color="accent"></path><path fill="#d3d3d3" d="M20.285 39.799c0.846-0.351 1.47-0.783 2.139-1.166C21.312 38.195 20.846 38.919 20.285 39.799z" data-fill-palette-color="accent"></path></g></svg></g></svg></g></svg></g><defs></defs></svg><rect width="395.52" height="49.188042670052404" fill="none" stroke="none" visibility="hidden"></rect></g></svg></g></svg>